<svg width="144" height="119" viewBox="0 0 144 119" fill="none" xmlns="http://www.w3.org/2000/svg">
<path d="M13.8974 0.527744C16.617 0.428595 17.368 0.66708 19.9677 1.22823C25.9393 2.51733 31.2819 4.87771 36.7182 7.58863C40.1526 9.26009 43.4816 11.1402 46.6866 13.2184C49.1686 14.8484 52.0007 17.063 54.1705 19.0518C60.5413 24.8913 64.5994 32.284 67.0446 40.5177C67.3461 41.5331 67.634 42.5054 67.8979 43.5337C68.2437 44.8814 68.6319 47.0446 69.1773 48.2711C70.8214 51.9682 73.6531 54.8826 74.7207 58.8869C75.0381 60.0775 75.3051 60.904 75.3316 62.1715C75.3828 64.5859 75.5531 66.9898 73.7778 68.8942C71.9111 70.8962 70.2574 68.9066 68.4261 68.3352C68.1886 68.2616 66.8132 68.3054 66.4621 68.3128C63.2683 70.653 61.6958 75.2656 60.0562 78.7718C57.357 84.5438 57.4915 91.1203 57.0481 97.3554C56.7628 101.368 57.6122 106.76 53.3122 109.064C52.5169 109.459 51.1263 109.486 50.3246 109.094C44.008 105.997 49.3419 94.9697 51.2095 90.6498C52.0651 88.69 52.9073 86.7244 53.736 84.753C55.0275 81.647 56.0098 78.7329 57.2173 75.6907C56.4106 76.2894 55.2187 77.7588 54.5348 78.561C53.1909 80.1453 51.855 81.7363 50.5271 83.3331C49.8676 84.1162 48.2262 85.9057 47.7737 86.6169C45.1047 89.2994 42.4434 92.2234 39.2521 94.304C37.3121 95.5684 34.9303 96.3283 32.6139 95.8131C31.3036 95.5179 30.1671 94.7084 29.4607 93.5655C27.3952 90.2305 28.5665 84.6397 29.702 81.1186C30.1211 79.8187 31.4907 78.1268 31.5582 76.6491C31.6178 75.3409 30.4711 73.8822 30.3555 72.5351C30.1825 70.8441 30.9667 69.3539 31.1683 67.6902C31.1948 67.4719 31.0639 66.8955 31.0339 66.6292C30.9389 65.7188 30.9938 64.7984 31.1969 63.9053C32.2468 59.4628 36.7344 57.9772 40.4642 56.293C41.4843 55.8323 42.4878 55.4863 43.4526 54.8836L43.5366 54.83C43.3565 54.0532 42.928 51.9558 42.3771 51.4833C41.6733 50.8798 38.7994 50.6229 37.8641 50.5697C34.5968 50.384 26.7213 52.2669 26.1016 47.4766C26.0604 47.1583 26.1088 46.9634 25.8563 46.7043C25.7316 46.8155 24.0029 49.5655 23.6949 50.0016C20.5135 54.5051 17.0959 59.063 12.5003 62.227C10.33 63.7209 8.01504 64.4966 5.34985 64.0186C3.85124 63.7499 2.38569 62.2903 1.60613 60.9963C-0.375464 57.7075 -0.261725 52.6605 0.550652 49.0722C1.76839 43.6933 5.27852 38.1058 10.6196 36.117C11.8561 35.6565 13.2042 35.263 14.5484 35.2182C15.5811 35.1838 16.7358 35.1771 17.7761 35.2148C18.105 35.2268 19.2795 35.4521 19.4946 35.3227C19.3905 35.038 18.484 34.1747 18.2219 33.8288C16.7391 31.872 15.5513 29.9104 18.4381 28.5417C16.2497 26.8849 11.852 23.0871 12.8743 19.8383C13.2301 18.7079 14.1963 18.22 15.199 17.7474C14.3997 16.5296 13.1965 15.3555 12.3516 14.0621C11.0978 12.1428 9.81213 10.4366 9.19186 8.16408C8.53513 5.75789 9.09713 3.16713 11.1653 1.63483C12.0844 0.957003 12.7974 0.791451 13.8974 0.527744ZM13.8309 56.2348C18.0233 55.4264 20.7856 51.3944 20.0264 47.1912C19.2673 42.988 15.2695 40.1778 11.0593 40.8881C8.29187 41.3551 5.98898 43.2742 5.02988 45.913C4.07086 48.5516 4.60377 51.5023 6.42517 53.6384C8.24648 55.7746 11.0752 56.7662 13.8309 56.2348Z" fill="white"/>
<path d="M136.045 0.52329C138.118 0.494926 139.947 0.318872 141.727 1.59995C142.836 2.39801 143.686 3.61318 143.906 4.97546C144.696 9.86128 140.332 14.1984 137.704 17.8658C139.162 18.2664 140.309 19.2228 140.239 20.8617C140.133 23.3374 138.072 25.3292 136.438 26.9786L136.5 27.0055L136.604 27.0519C137.543 27.4655 137.62 27.6996 138.008 28.6308C137.457 30.7261 136.626 31.3598 135.881 33.1209C135.603 33.7775 135.549 34.5077 135.326 35.1823C134.278 38.3548 129.403 38.3282 126.883 39.6427C126.485 39.8502 125.983 40.162 125.861 40.6264C125.769 40.9802 126.238 41.543 126.413 41.8353C126.508 41.9928 126.584 42.1148 126.536 42.3026C126.42 42.7447 126.948 45.4236 126.946 46.3153C126.942 47.5252 126.744 48.7002 125.825 49.5733C123.91 51.3905 117.793 50.5993 115.248 50.5788C114.334 50.5716 111.143 50.8672 110.554 51.5036C110.155 51.9361 109.424 54.09 109.488 54.69C109.519 54.9728 110.029 55.2264 110.253 55.3413C113.311 56.91 116.718 57.7495 119.4 60.0473C121.028 61.4427 122.011 63.5422 121.924 65.6997C121.89 66.525 121.714 67.3453 121.825 68.173C122.017 69.6102 122.785 70.9358 122.608 72.4309C122.417 74.0368 121.179 75.4318 121.475 77.0947C121.723 78.4914 122.654 79.7343 123.213 81.0227C123.959 82.7451 124.446 85.4087 124.579 87.2916C124.753 89.7409 124.653 92.3309 122.936 94.265C121.995 95.3252 120.769 95.8784 119.363 95.9569C117.545 96.0595 115.885 95.5468 114.301 94.6769C112.768 93.8342 111.457 92.6327 110.168 91.4667C109.258 90.6448 108.251 89.8906 107.393 89.0199C106.737 88.355 106.147 87.6149 105.525 86.9178C103.451 84.595 101.477 82.1977 99.4673 79.8195C98.3646 78.5129 97.2636 76.9939 95.979 75.8726L95.8699 75.7783C96.4841 77.6637 97.0106 79.2787 97.738 81.1351C98.2621 82.4731 99.0027 84.0624 99.464 85.364C101.615 90.5472 104.412 95.7403 105.427 101.298C105.803 103.358 105.809 105.751 104.562 107.531C103.942 108.417 103.045 109.138 101.954 109.314C100.871 109.489 99.8177 109.276 98.9225 108.632C97.5901 107.674 96.7643 106.118 96.3551 104.559C96.0352 103.338 96.1253 102.132 96.0766 100.886C96.0352 99.8195 95.9625 98.752 95.9162 97.6844C95.7435 93.6986 95.5476 89.1662 94.8879 85.2491C94.2448 81.4353 90.8409 73.2727 88.481 70.1957C87.9073 69.4473 87.2345 68.8577 86.4699 68.3111C86.1525 68.3086 84.8167 68.2731 84.6117 68.3186C83.652 68.5303 82.5717 69.42 81.598 69.6764C81.0532 69.8327 80.2837 69.7632 79.81 69.42C76.6921 67.16 77.3393 62.0607 78.2205 58.8549C79.3405 54.7832 82.1625 51.9353 83.8108 48.1439C84.2993 47.0214 84.4522 45.8664 84.7473 44.6923C84.9366 43.9209 85.1399 43.1558 85.349 42.3904C86.7361 37.3105 88.6174 32.5435 91.3584 28.0387C97.0478 18.6854 106.324 12.4029 115.991 7.70052C119.779 5.84134 123.65 3.96637 127.707 2.65759C130.381 1.79502 133.287 1.15357 136.045 0.52329Z" fill="white"/>
<path d="M76.2053 0.00929701C77.675 -0.0521437 78.8992 0.176501 80.0721 1.12978C81.2674 2.08389 82.0187 3.48694 82.1502 5.01096C82.4155 8.00535 80.1225 10.7245 77.136 10.9942C77.0178 13.1926 77.1038 16.1756 77.1038 18.4193V32.4037L77.1071 75.4062L77.1104 89.387C77.1104 90.5513 77.1807 94.9589 77.0253 95.8834C76.3252 96.9261 73.4021 95.8776 72.4043 95.5311C69.0014 94.0559 66.4977 91.1318 65.8125 87.4495C65.289 84.5346 65.9489 81.5304 67.6461 79.1034C69.4686 76.4646 72.5003 74.8033 75.6837 74.5958C76.2425 74.5594 76.0565 72.2266 76.0549 71.7098L76.0482 25.1149L76.0458 8.90041C76.0449 6.17892 76.0367 3.44046 76.0499 0.717891C76.0515 0.41416 76.059 0.264487 76.2053 0.00929701Z" fill="white"/>
<path d="M53.903 110.944C56.1005 110.599 58.165 112.091 58.5277 114.287C58.8904 116.482 57.4154 118.559 55.2238 118.94C53.007 119.324 50.9016 117.828 50.5348 115.608C50.1679 113.387 51.6803 111.293 53.903 110.944Z" fill="white"/>
</svg>
